# xmcd
#
# Track frame offsets:
#	150
#	20173
#	37819
#	63590
#	82332
#	103726
#	127792
#	143680
#	160621
#	172990
#	196951
#	216048
#	236053
#
# Disc length: 3443 seconds
#
# Revision: 0
# Processed by: cddbd v1.5.2PL0 Copyright (c) Steve Scherf et al.
# Submitted via: EasyCDDAExtractor 10.0.6.1
#
DISCID=ad0d710d
DTITLE=Esa Eloranta - Tuhat Tarinaa
DYEAR=2007
DGENRE=Country
TTITLE0=Tuhat tarinaa
TTITLE1=Kai toivoo saan
TTITLE2=Enkelin poika
TTITLE3=Teidän talon edessä
TTITLE4=Keskellä yötä
TTITLE5=Voimaton
TTITLE6=Yksi pyyntö
TTITLE7=Kaikki tuntuu luisuvan pois
TTITLE8=Rivien välistä
TTITLE9=Häpeäputki
TTITLE10=Raide 2
TTITLE11=Formaattiblues
TTITLE12=Jälkikirjoitus
EXTD=
EXTT0=
EXTT1=
EXTT2=
EXTT3=
EXTT4=
EXTT5=
EXTT6=
EXTT7=
EXTT8=
EXTT9=
EXTT10=
EXTT11=
EXTT12=
PLAYORDER=
